<?xml version="1.0" standalone="no"?>
<!DOCTYPE svg PUBLIC "-//W3C//DTD SVG 20010904//EN"
 "http://www.w3.org/TR/2001/REC-SVG-20010904/DTD/svg10.dtd">
<svg version="1.0" xmlns="http://www.w3.org/2000/svg"
 width="254.000000pt" height="198.000000pt" viewBox="0 0 254.000000 198.000000"
 preserveAspectRatio="xMidYMid meet">

<g transform="translate(0.000000,198.000000) scale(0.100000,-0.100000)"
fill="#000000" stroke="none">
<path d="M1410 1660 c-6 -11 -8 -20 -6 -20 3 0 10 9 16 20 6 11 8 20 6 20 -3
0 -10 -9 -16 -20z"/>
<path d="M1050 1656 c0 -8 42 -76 46 -76 3 0 -5 18 -16 40 -18 35 -30 49 -30
36z"/>
<path d="M1366 1585 c-13 -25 -21 -43 -15 -40 10 7 52 85 45 85 -2 0 -16 -20
-30 -45z"/>
<path d="M1493 1594 c-6 -13 -7 -24 -2 -24 5 0 9 5 9 10 0 6 10 14 22 19 21 7
21 8 2 13 -14 4 -23 -2 -31 -18z"/>
<path d="M929 1578 c7 -9 11 -21 8 -25 -3 -4 5 -8 18 -8 13 0 21 3 19 7 -2 3
-1 8 3 11 5 2 2 2 -6 0 -8 -2 -23 5 -35 14 -18 16 -19 16 -7 1z"/>
<path d="M1110 1550 c6 -11 13 -20 16 -20 2 0 0 9 -6 20 -6 11 -13 20 -16 20
-2 0 0 -9 6 -20z"/>
<path d="M1511 1554 c0 -11 3 -14 6 -6 3 7 2 16 -1 19 -3 4 -6 -2 -5 -13z"/>
<path d="M1630 1541 c0 -11 4 -22 9 -25 4 -3 6 6 3 19 -5 30 -12 33 -12 6z"/>
<path d="M1685 1549 c-4 -6 -5 -12 -2 -15 2 -3 7 2 10 11 7 17 1 20 -8 4z"/>
<path d="M1588 1521 c9 -16 18 -28 20 -27 5 6 -21 56 -29 56 -5 0 0 -13 9 -29z"/>
<path d="M1155 1485 c-33 -28 -38 -38 -29 -51 8 -14 4 -24 -19 -48 -45 -49
-51 -64 -23 -59 13 3 33 0 45 -6 17 -10 19 -16 11 -31 -13 -24 -13 -33 0 -25
16 10 28 68 19 93 -5 13 -5 22 2 22 5 0 12 -6 15 -14 9 -23 35 -28 55 -10 14
13 16 21 8 35 -5 11 -14 19 -19 19 -6 0 -5 -9 2 -20 10 -15 10 -22 0 -32 -10
-10 -16 -9 -29 4 -13 14 -14 20 -3 32 7 10 8 16 2 16 -6 0 -12 -5 -14 -12 -2
-6 -12 -9 -21 -5 -22 8 -13 29 20 45 39 18 65 15 121 -13 55 -28 76 -48 70
-67 -3 -7 3 -29 14 -49 14 -27 17 -50 13 -98 -5 -72 -13 -103 -25 -96 -4 3
-11 -10 -14 -29 -4 -19 -13 -39 -21 -46 -13 -11 -15 -5 -17 41 -1 43 -2 46 -5
17 -5 -43 -44 -78 -87 -78 -31 0 -116 77 -116 105 0 10 8 36 18 56 13 30 23
39 43 39 37 0 55 24 41 53 -10 22 -11 21 -11 -5 -1 -32 -17 -44 -36 -28 -11
10 -15 10 -15 1 0 -7 -4 -9 -10 -6 -6 3 -10 -4 -10 -18 0 -14 -7 -30 -15 -37
-8 -7 -15 -18 -15 -24 0 -6 -12 -29 -26 -49 -14 -21 -23 -41 -20 -44 3 -4 6
-2 6 3 0 5 7 18 15 29 15 19 16 18 43 -10 15 -17 42 -42 61 -56 33 -26 33 -27
16 -52 -35 -53 31 -93 87 -53 41 29 47 10 9 -27 -22 -21 -35 -28 -38 -20 -4
10 -10 10 -26 -2 -28 -19 -91 -19 -107 0 -7 8 -10 24 -7 35 4 17 2 20 -13 15
-14 -5 -21 3 -34 37 -8 24 -17 54 -18 68 -3 22 -7 19 -36 -30 -35 -60 -41
-110 -16 -131 8 -7 24 -30 35 -51 12 -24 35 -46 62 -60 37 -20 56 -23 172 -23
150 0 212 16 236 63 7 15 26 42 41 60 16 18 28 45 28 60 0 26 -33 84 -89 159
-24 32 -25 32 -38 13 -8 -11 -18 -20 -24 -20 -16 0 -10 29 12 51 17 17 23 19
30 8 6 -10 9 -11 9 -1 0 6 5 12 12 12 21 0 137 133 147 167 5 19 6 45 1 60 -6
21 -9 23 -10 8 -1 -26 -49 -80 -78 -89 -12 -4 -27 -16 -32 -27 -17 -31 -30
-22 -18 14 18 56 26 122 17 131 -10 11 -49 -20 -49 -38 0 -6 5 -3 11 7 29 50
39 -17 14 -93 -9 -25 -20 -54 -25 -65 -5 -11 -14 -32 -20 -47 -5 -16 -15 -28
-21 -28 -9 0 -10 20 -6 70 3 39 2 70 -3 70 -4 0 -13 22 -20 50 -8 34 -22 58
-43 76 -23 20 -31 34 -31 62 -1 37 -2 37 -43 37 -22 0 -45 3 -49 8 -13 13 -28
7 -69 -28z m70 15 c4 -6 23 -9 43 -8 29 2 37 -1 40 -16 5 -25 -14 -44 -30 -28
-14 14 -80 16 -93 3 -6 -5 -20 -12 -32 -16 -32 -9 -31 22 1 34 13 5 26 17 29
25 7 18 33 21 42 6z m-85 -110 c0 -5 -4 -10 -10 -10 -5 0 -10 5 -10 10 0 6 5
10 10 10 6 0 10 -4 10 -10z m10 -29 c0 -5 -13 -11 -30 -13 -29 -4 -37 1 -23
15 10 10 53 8 53 -2z m0 -31 c0 -5 -7 -7 -15 -4 -8 4 -15 8 -15 10 0 2 7 4 15
4 8 0 15 -4 15 -10z m470 -18 c0 -23 -129 -158 -157 -165 -22 -5 -22 -4 -9 27
15 36 82 106 101 106 6 0 22 11 35 25 28 30 30 30 30 7z m-220 -222 c-10 -36
-19 -50 -30 -50 -8 0 2 49 15 70 13 21 23 9 15 -20z m70 -45 c0 -21 -24 -45
-44 -45 -11 0 -6 46 6 58 20 20 38 14 38 -13z m-60 6 c0 -17 -49 -67 -50 -52
0 8 10 25 22 38 24 25 28 27 28 14z m-100 -32 c0 -21 0 -21 20 2 l19 24 1 -25
c0 -28 -25 -70 -42 -70 -7 0 -23 -10 -36 -22 l-25 -23 12 23 c14 26 5 29 -19
7 -15 -14 -18 -14 -30 0 -17 21 3 45 32 37 18 -4 20 -2 14 13 -5 14 0 24 16
37 30 23 38 22 38 -3z m-252 -117 c-6 -7 -8 -15 -5 -19 4 -3 9 2 13 11 9 23
19 20 32 -9 28 -62 136 -53 285 23 4 2 7 -5 7 -16 0 -23 -76 -118 -92 -114 -5
1 -16 -2 -24 -9 -7 -6 -17 -8 -22 -5 -5 3 -25 0 -44 -6 -31 -9 -43 -8 -83 12
-26 12 -49 30 -52 39 -14 47 -25 64 -32 53 -17 -29 -58 57 -45 93 5 13 8 14
15 3 6 -9 9 -3 9 18 0 51 13 48 31 -8 13 -38 15 -56 7 -66z m442 86 c0 -39
-33 -98 -55 -98 -23 0 -18 38 10 87 31 51 45 55 45 11z m-72 -8 c3 -7 0 -10
-7 -6 -6 4 -25 0 -43 -8 -38 -19 -44 -20 -29 -3 6 8 7 18 3 22 -4 5 -2 6 3 3
6 -3 19 -2 30 3 25 9 37 7 43 -11z m100 -75 c-9 -42 -36 -86 -56 -93 -21 -7
-13 30 21 99 34 72 51 69 35 -6z m-147 25 c-30 -26 -45 -26 -31 0 6 11 21 20
33 20 l22 -1 -24 -19z m49 -120 c0 -21 -27 -40 -59 -40 -28 0 -27 25 1 44 31
22 58 20 58 -4z"/>
<path d="M1301 974 c0 -11 3 -14 6 -6 3 7 2 16 -1 19 -3 4 -6 -2 -5 -13z"/>
<path d="M1687 1473 c-5 -8 69 -11 77 -3 2 3 -13 6 -34 8 -21 1 -41 -1 -43 -5z"/>
<path d="M1632 1440 c0 -19 2 -27 5 -17 2 9 2 25 0 35 -3 9 -5 1 -5 -18z"/>
<path d="M1700 1439 c29 -12 42 -29 35 -47 -3 -7 0 -10 5 -7 6 3 10 10 10 16
0 16 -39 49 -57 48 -13 0 -11 -3 7 -10z"/>
<path d="M812 1435 c8 -8 168 -85 176 -84 9 0 -160 88 -172 88 -5 1 -7 -1 -4
-4z"/>
<path d="M1539 1413 c-13 -16 -12 -17 4 -4 9 7 17 15 17 17 0 8 -8 3 -21 -13z"/>
<path d="M1205 1380 c3 -5 8 -10 11 -10 2 0 4 5 4 10 0 6 -5 10 -11 10 -5 0
-7 -4 -4 -10z"/>
<path d="M1539 1373 c-13 -16 -12 -17 4 -4 9 7 17 15 17 17 0 8 -8 3 -21 -13z"/>
<path d="M795 1349 c-4 -6 -12 -8 -19 -6 -6 3 -11 -6 -11 -19 0 -13 0 -24 1
-24 0 0 10 14 22 30 13 17 20 30 18 30 -3 0 -8 -5 -11 -11z"/>
<path d="M1451 1341 c-1 -8 -9 -24 -18 -35 -16 -20 -16 -20 6 0 13 12 21 28
18 35 -4 11 -6 11 -6 0z"/>
<path d="M1268 1330 c6 -8 12 -21 12 -29 -1 -13 -4 -12 -16 4 -13 18 -14 17
-7 -15 6 -32 5 -34 -10 -21 -9 7 -17 21 -18 30 0 11 -2 12 -6 3 -5 -13 23 -52
39 -52 4 0 8 7 8 15 0 8 5 15 10 15 17 0 11 37 -7 51 -15 11 -16 11 -5 -1z"/>
<path d="M1740 1331 c0 -8 -7 -11 -17 -6 -15 5 -16 4 -5 -6 9 -10 15 -10 24
-1 6 6 9 15 5 19 -4 3 -7 1 -7 -6z"/>
<path d="M1345 1286 c2 -14 6 -30 10 -35 3 -6 2 -11 -2 -11 -5 0 -9 -9 -9 -21
0 -19 1 -19 13 -3 7 9 10 30 6 48 -7 38 -21 57 -18 22z"/>
<path d="M1719 1283 c-13 -16 -12 -17 4 -4 9 7 17 15 17 17 0 8 -8 3 -21 -13z"/>
<path d="M1751 1284 c0 -11 3 -14 6 -6 3 7 2 16 -1 19 -3 4 -6 -2 -5 -13z"/>
<path d="M748 1173 c6 -2 18 -2 25 0 6 3 1 5 -13 5 -14 0 -19 -2 -12 -5z"/>
<path d="M1269 1163 c-10 -12 -11 -15 -1 -9 7 4 20 2 29 -6 15 -11 16 -11 10
5 -9 25 19 22 37 -5 9 -12 16 -17 16 -11 0 38 -66 57 -91 26z"/>
<path d="M798 1163 c6 -2 18 -2 25 0 6 3 1 5 -13 5 -14 0 -19 -2 -12 -5z"/>
<path d="M1763 1163 c9 -2 23 -2 30 0 6 3 -1 5 -18 5 -16 0 -22 -2 -12 -5z"/>
<path d="M863 1153 c9 -2 23 -2 30 0 6 3 -1 5 -18 5 -16 0 -22 -2 -12 -5z"/>
<path d="M1670 1150 c-20 -6 -21 -8 -5 -8 11 0 31 4 45 8 20 6 21 8 5 8 -11 0
-31 -4 -45 -8z"/>
<path d="M918 1143 c6 -2 18 -2 25 0 6 3 1 5 -13 5 -14 0 -19 -2 -12 -5z"/>
<path d="M1744 1060 c0 -11 4 -20 8 -20 4 0 8 9 8 20 0 11 -4 20 -8 20 -4 0
-8 -9 -8 -20z"/>
<path d="M780 1055 c-7 -9 -11 -17 -9 -20 3 -2 10 5 17 15 14 24 10 26 -8 5z"/>
<path d="M890 950 c-8 -5 -10 -10 -5 -10 6 0 17 5 25 10 8 5 11 10 5 10 -5 0
-17 -5 -25 -10z"/>
<path d="M1668 943 c7 -3 16 -2 19 1 4 3 -2 6 -13 5 -11 0 -14 -3 -6 -6z"/>
<path d="M1708 933 c7 -3 16 -2 19 1 4 3 -2 6 -13 5 -11 0 -14 -3 -6 -6z"/>
<path d="M1748 923 c7 -3 16 -2 19 1 4 3 -2 6 -13 5 -11 0 -14 -3 -6 -6z"/>
<path d="M1292 627 c-17 -20 -9 -42 23 -70 25 -21 27 -27 16 -41 -10 -12 -18
-13 -32 -5 -10 5 -19 7 -19 5 0 -3 9 -10 19 -16 15 -7 23 -6 35 6 22 21 20 28
-15 69 -23 26 -29 39 -21 47 8 8 15 8 27 -2 8 -7 15 -8 15 -2 0 5 -7 13 -16
16 -21 8 -20 8 -32 -7z"/>
<path d="M914 515 c-1 -63 1 -115 5 -115 3 0 7 52 9 115 2 63 0 115 -5 115 -4
0 -9 -52 -9 -115z"/>
<path d="M976 593 c9 -51 17 -57 12 -10 -4 36 -2 38 19 34 13 -2 23 0 23 4 0
5 -14 9 -30 9 -30 0 -31 -1 -24 -37z"/>
<path d="M1115 620 c3 -5 8 -10 11 -10 2 0 4 5 4 10 0 6 -5 10 -11 10 -5 0 -7
-4 -4 -10z"/>
<path d="M1188 623 c6 -2 18 -2 25 0 6 3 1 5 -13 5 -14 0 -19 -2 -12 -5z"/>
<path d="M1376 608 c-17 -65 2 -128 39 -128 17 0 25 23 25 75 0 58 -8 75 -35
75 -15 0 -25 -8 -29 -22z m52 -47 c3 -60 -8 -82 -33 -61 -15 13 -21 74 -9 105
4 9 14 15 23 13 12 -2 17 -17 19 -57z"/>
<path d="M1474 585 c7 -58 19 -74 44 -59 36 23 23 104 -16 104 -12 0 -11 -4 6
-16 24 -17 29 -53 10 -72 -20 -20 -28 -14 -28 26 0 20 -5 44 -11 52 -8 11 -9
2 -5 -35z"/>
<path d="M1597 623 c-4 -3 -7 -11 -7 -17 0 -6 4 -5 9 3 6 9 11 -2 15 -33 4
-25 12 -49 18 -52 8 -5 9 -1 5 10 -4 10 -10 35 -13 57 -6 38 -13 46 -27 32z"/>
<path d="M1695 620 c-4 -7 2 -9 18 -5 21 6 26 2 35 -22 8 -22 11 -24 11 -7 2
36 -47 61 -64 34z"/>
<path d="M792 608 c-17 -17 -15 -93 3 -108 12 -10 13 -8 8 12 -14 55 -10 83
11 95 15 9 17 12 6 13 -9 0 -21 -5 -28 -12z"/>
<path d="M1093 540 c0 -41 2 -58 4 -37 2 20 2 54 0 75 -2 20 -4 3 -4 -38z"/>
<path d="M1171 593 c0 -13 7 -27 19 -33 14 -7 20 -7 20 0 0 5 -6 10 -14 10 -8
0 -17 10 -19 23 l-4 22 -2 -22z"/>
<path d="M1680 570 c0 -16 5 -30 11 -30 5 0 7 -5 4 -10 -3 -6 1 -13 9 -16 9
-3 13 -10 10 -15 -3 -5 0 -8 7 -7 7 2 13 -3 14 -11 0 -8 6 -15 13 -17 7 -1 8
0 2 3 -5 2 -8 8 -5 13 3 5 -6 17 -20 29 -15 11 -26 22 -26 25 4 35 -1 66 -9
66 -5 0 -10 -13 -10 -30z"/>
<path d="M1578 567 c-3 -19 -2 -25 4 -19 6 6 8 18 6 28 -3 14 -5 12 -10 -9z"/>
<path d="M1172 530 c0 -14 2 -19 5 -12 2 6 2 18 0 25 -3 6 -5 1 -5 -13z"/>
<path d="M1008 533 c7 -3 16 -2 19 1 4 3 -2 6 -13 5 -11 0 -14 -3 -6 -6z"/>
<path d="M1180 500 c-13 -9 -13 -10 0 -10 8 0 22 5 30 10 13 9 13 10 0 10 -8
0 -22 -5 -30 -10z"/>
<path d="M1470 491 c0 -11 5 -23 10 -26 6 -4 10 5 10 19 0 14 -4 26 -10 26 -5
0 -10 -9 -10 -19z"/>
<path d="M1588 503 c6 -2 18 -2 25 0 6 3 1 5 -13 5 -14 0 -19 -2 -12 -5z"/>
<path d="M1635 466 c3 -27 7 -52 10 -54 11 -12 11 6 -1 53 l-13 50 4 -49z"/>
<path d="M820 496 c0 -2 8 -10 18 -17 15 -13 16 -12 3 4 -13 16 -21 21 -21 13z"/>
<path d="M1557 480 c-3 -11 -1 -20 4 -20 5 0 9 9 9 20 0 11 -2 20 -4 20 -2 0
-6 -9 -9 -20z"/>
<path d="M970 461 c0 -17 2 -31 4 -31 8 0 13 51 5 56 -5 3 -9 -9 -9 -25z"/>
<path d="M830 454 c14 -17 29 -29 35 -26 5 3 4 7 -3 10 -7 2 -9 9 -5 15 3 7 2
9 -2 4 -5 -4 -18 1 -29 10 -15 14 -14 10 4 -13z"/>
<path d="M1010 455 c-8 -9 -8 -15 -2 -15 12 0 26 19 19 26 -2 2 -10 -2 -17
-11z"/>
<path d="M1751 423 c-1 -21 -8 -36 -21 -43 -11 -6 -21 -8 -21 -5 -1 3 -3 10
-4 15 -1 6 -3 19 -4 30 0 11 -5 20 -9 20 -13 0 -2 -58 14 -71 15 -12 49 -8 49
6 0 6 3 15 6 20 3 6 3 21 -2 35 -7 23 -7 23 -8 -7z"/>
<path d="M1257 434 c-9 -10 -9 -134 1 -134 4 0 5 30 4 66 -3 52 -1 65 10 62 9
-3 13 -24 13 -66 0 -34 4 -62 8 -62 4 0 7 30 5 67 -2 52 -7 68 -18 71 -9 1
-19 0 -23 -4z"/>
<path d="M1210 400 c0 -39 -27 -41 -32 -2 -2 15 -6 -1 -8 -36 -3 -34 -2 -62 3
-62 4 0 7 11 7 25 0 35 28 32 32 -2 2 -16 6 2 9 40 2 37 1 67 -3 67 -5 0 -8
-13 -8 -30z"/>
<path d="M1331 363 c1 -38 4 -56 6 -40 2 15 8 27 13 27 5 0 14 9 20 20 13 24
-3 60 -25 60 -12 0 -15 -14 -14 -67z m33 40 c4 -9 0 -23 -9 -32 -13 -14 -15
-12 -15 17 0 34 14 43 24 15z"/>
<path d="M770 404 c0 -8 5 -12 10 -9 6 3 10 10 10 16 0 5 -4 9 -10 9 -5 0 -10
-7 -10 -16z"/>
<path d="M1417 403 c-4 -3 -7 -16 -7 -27 0 -17 2 -18 10 -6 8 13 10 12 10 -2
0 -10 -6 -18 -14 -18 -7 0 -16 -11 -18 -25 -3 -13 -1 -22 3 -19 5 3 9 12 9 20
0 8 7 14 15 14 9 0 15 9 15 23 0 26 -14 50 -23 40z"/>
<path d="M847 380 c-4 -14 -12 -19 -31 -18 -19 2 -25 7 -21 18 5 12 4 12 -6 3
-10 -10 -9 -15 1 -28 14 -17 50 -20 50 -4 0 5 4 8 9 5 8 -6 21 15 21 35 0 17
-18 9 -23 -11z"/>
<path d="M1087 362 l-27 -42 24 0 c13 0 26 -5 28 -12 8 -23 14 17 8 56 l-5 40
-28 -42z m23 -12 c0 -11 -7 -20 -15 -20 -13 0 -14 4 -5 20 6 11 13 20 15 20 3
0 5 -9 5 -20z"/>
<path d="M1475 380 c-3 -6 3 -22 14 -36 12 -15 21 -22 21 -17 0 6 -7 16 -15
23 -16 14 -10 34 7 24 7 -4 8 -2 4 4 -9 15 -23 15 -31 2z"/>
<path d="M1015 370 c-3 -6 1 -7 9 -4 21 8 21 -19 1 -36 -8 -7 -15 -17 -15 -23
0 -5 9 2 21 17 11 15 18 33 15 41 -6 17 -22 20 -31 5z"/>
<path d="M1360 326 c0 -8 4 -17 9 -20 5 -4 7 3 4 14 -6 23 -13 26 -13 6z"/>
<path d="M1441 314 c0 -11 3 -14 6 -6 3 7 2 16 -1 19 -3 4 -6 -2 -5 -13z"/>
<path d="M1470 310 c0 -5 5 -10 11 -10 5 0 7 5 4 10 -3 6 -8 10 -11 10 -2 0
-4 -4 -4 -10z"/>
</g>
</svg>
