<?xml version="1.0" standalone="no"?>
<!DOCTYPE svg PUBLIC "-//W3C//DTD SVG 20010904//EN"
 "http://www.w3.org/TR/2001/REC-SVG-20010904/DTD/svg10.dtd">
<svg version="1.0" xmlns="http://www.w3.org/2000/svg"
 width="329.000000pt" height="153.000000pt" viewBox="0 0 329.000000 153.000000"
 preserveAspectRatio="xMidYMid meet">

<g transform="translate(0.000000,153.000000) scale(0.100000,-0.100000)"
fill="#000000" stroke="none">
<path d="M0 1492 l0 -38 273 -72 c149 -39 297 -78 327 -85 48 -12 55 -17 52
-36 -1 -17 2 -22 13 -17 16 6 21 -9 6 -18 -4 -3 -6 -16 -4 -29 3 -14 -2 -31
-11 -40 -15 -15 -13 -17 34 -23 64 -8 66 -23 2 -16 l-48 4 -2 -103 c-2 -82 -6
-105 -20 -116 -16 -13 -15 -14 5 -8 12 3 24 1 28 -5 4 -6 -6 -10 -25 -10 -25
0 -33 -6 -45 -32 l-14 -33 35 -8 c19 -5 34 -13 34 -17 0 -10 -30 -21 -40 -15
-5 3 -28 1 -52 -4 -37 -9 -50 -6 -100 17 -50 22 -58 30 -58 53 0 28 -22 59
-43 59 -13 0 -77 -69 -77 -82 0 -5 7 -8 16 -8 8 0 13 -4 10 -9 -9 -14 5 -41
21 -41 8 0 11 4 8 10 -3 6 1 7 10 3 27 -10 -3 -23 -55 -23 -25 0 -40 -4 -34
-8 8 -5 6 -16 -6 -35 l-18 -29 -12 36 c-6 20 -27 48 -46 62 -28 22 -32 29 -23
45 11 21 48 26 51 7 0 -7 4 25 8 72 4 47 3 89 -1 94 -9 10 -12 -25 -9 -101 1
-37 -1 -43 -19 -43 -16 0 -20 6 -18 23 2 19 -2 22 -33 19 -19 -1 -43 -11 -54
-21 -18 -18 -17 -18 8 -14 15 3 26 1 26 -6 0 -6 -3 -10 -7 -10 -25 4 -43 -3
-43 -17 0 -8 4 -13 9 -10 5 4 7 -2 5 -11 -2 -10 0 -24 5 -32 8 -12 14 -12 39
-2 17 7 35 10 40 7 11 -7 4 -55 -12 -75 -9 -12 -8 -13 7 -8 12 5 17 3 15 -5
-5 -13 -48 -22 -48 -9 0 17 -39 -1 -45 -20 -4 -10 -11 -19 -17 -19 -5 0 -7 -7
-4 -16 5 -13 1 -15 -20 -10 -19 5 -25 3 -22 -6 3 -7 14 -14 26 -16 14 -2 22
-10 22 -24 0 -16 -5 -19 -25 -16 -23 5 -25 2 -25 -33 0 -20 6 -40 13 -42 10
-4 10 -6 0 -6 -10 -1 -13 -55 -13 -236 l0 -235 1645 0 1645 0 0 439 c0 342 -3
440 -12 444 -10 4 -10 8 0 15 11 7 11 10 -3 16 -9 3 -13 11 -9 17 4 7 0 9 -13
5 -25 -8 -62 17 -43 29 8 5 11 4 7 -2 -9 -14 18 -24 39 -16 9 3 20 0 25 -8 5
-9 9 13 9 59 0 59 -3 72 -16 72 -8 0 -13 4 -9 9 5 9 -138 20 -163 12 -7 -2
-11 -10 -8 -17 3 -8 2 -14 -2 -15 -4 0 -16 -2 -27 -5 -11 -2 -37 -1 -57 2 -35
5 -38 8 -38 39 0 33 -1 34 -47 38 l-48 3 53 2 c28 1 52 7 52 12 0 6 -5 10 -11
10 -6 0 -8 7 -5 16 3 8 2 12 -4 9 -6 -3 -10 3 -10 15 0 11 7 23 15 27 27 10
31 -2 34 -104 1 -45 3 -51 18 -46 11 4 12 8 5 11 -8 2 -12 29 -12 77 l0 74 35
7 c20 3 39 4 42 0 4 -3 -6 -6 -21 -6 -16 0 -25 -4 -21 -10 3 -5 17 -10 30 -10
21 0 23 -3 19 -44 -2 -30 1 -48 11 -56 12 -10 15 -9 15 8 0 11 7 23 16 26 8 3
12 10 9 16 -3 5 10 18 30 27 20 9 34 22 31 29 -3 7 2 15 11 18 8 4 13 13 10
20 -3 8 1 17 9 20 24 9 16 -38 -11 -64 -27 -26 -33 -60 -11 -60 8 0 18 5 21
10 3 6 17 10 31 10 l24 0 0 175 0 175 -360 0 -360 0 0 -80 0 -79 58 -3 57 -3
3 -127 3 -128 29 0 c19 0 30 -5 30 -14 0 -8 7 -17 16 -20 24 -9 10 -19 -39
-27 l-42 -6 43 -2 c23 0 42 -5 42 -11 0 -5 9 -10 20 -10 11 0 20 -4 20 -9 0
-12 -71 -24 -160 -27 l-75 -2 -6 -35 c-7 -42 13 -97 35 -97 8 0 21 7 30 15 8
8 24 15 37 15 20 0 21 -4 17 -51 -4 -38 -2 -49 8 -45 7 3 18 -2 24 -10 10 -11
8 -14 -11 -15 -23 -1 -23 -1 4 -13 15 -7 24 -15 21 -19 -4 -4 -14 -1 -22 6
-13 10 -15 9 -9 -6 4 -11 3 -16 -3 -12 -6 3 -10 12 -10 20 0 7 -16 22 -35 34
-19 11 -33 26 -31 33 1 7 1 10 -1 6 -2 -4 -20 2 -38 14 l-35 20 -30 -22 c-33
-23 -39 -45 -14 -54 8 -3 12 -10 9 -16 -3 -5 3 -10 15 -10 12 0 18 -4 15 -10
-7 -12 -65 15 -65 31 0 6 -5 7 -12 3 -6 -4 -8 -3 -5 3 4 6 -6 19 -21 28 l-27
18 19 -21 c19 -22 19 -22 -3 -22 -12 0 -20 -4 -16 -10 3 -5 -2 -18 -12 -30
-18 -21 -43 -27 -43 -11 0 11 -100 8 -144 -4 -21 -6 -27 -5 -22 4 4 6 2 11 -3
11 -6 0 -11 -5 -11 -10 0 -6 -9 -20 -20 -32 -24 -26 -25 -38 -4 -38 11 0 14
-6 9 -20 -4 -11 -8 -37 -10 -58 -2 -20 -12 -54 -23 -75 l-20 -37 -11 37 c-10
38 -10 37 -6 -12 l5 -50 -20 35 -21 35 6 -32 c4 -18 3 -43 -1 -55 l-7 -23 -10
25 c-9 24 -10 24 -24 -18 -8 -23 -19 -42 -24 -42 -4 0 -6 6 -3 14 3 8 1 17 -5
21 -6 3 -11 -1 -11 -11 0 -13 -3 -14 -15 -4 -8 7 -15 24 -15 39 0 20 -2 23
-10 11 -5 -8 -10 -12 -10 -8 -1 33 149 218 177 218 19 0 26 19 13 35 -10 12
-9 15 8 15 26 0 51 35 45 61 -6 20 18 26 54 12 16 -6 15 -8 -7 -14 -17 -5 -4
-7 38 -8 47 -1 64 3 68 14 4 8 15 15 25 15 11 0 24 11 31 25 6 13 14 23 17 21
3 -2 4 19 2 47 -3 29 -6 45 -8 36 -7 -28 -152 -43 -154 -16 0 6 -2 26 -2 42
-2 22 -7 30 -19 29 -10 -1 -15 2 -12 7 3 5 12 9 20 9 8 0 14 5 14 11 0 5 -5 7
-10 4 -6 -3 -15 6 -20 20 -13 34 -8 95 7 95 7 0 10 9 8 20 -2 11 0 18 5 15 4
-3 10 0 12 7 2 6 31 13 67 16 52 4 64 2 76 -14 13 -17 14 -1 15 129 l0 148
-25 -18 c-13 -10 -25 -27 -25 -38 0 -13 -3 -16 -11 -8 -7 7 -39 -9 -110 -56
l-99 -66 3 -40 c2 -35 6 -40 29 -43 l26 -3 1 -107 c1 -60 -4 -114 -9 -122 -9
-12 -10 -12 -8 5 3 17 -2 20 -32 17 -55 -6 -72 -19 -58 -42 9 -14 16 -16 24
-9 10 8 10 5 1 -15 -12 -26 -33 -37 -24 -12 7 17 -11 36 -34 36 -9 0 -19 9
-22 20 -6 23 -37 27 -37 4 0 -8 4 -13 8 -10 5 3 9 0 9 -7 0 -8 -13 -11 -38 -9
-35 4 -37 6 -29 28 5 13 6 23 2 23 -4 -1 -13 -1 -20 0 -21 2 5 41 28 41 41 0
51 11 45 49 l-5 36 19 -39 c12 -25 21 -34 26 -26 4 7 2 16 -4 20 -7 4 -11 15
-9 26 4 22 -45 33 -107 23 -32 -5 -34 -6 -11 -8 22 -1 27 -5 21 -18 -5 -15 -4
-16 6 -5 7 6 16 12 20 12 12 0 19 -29 8 -35 -5 -4 -9 -3 -8 2 4 22 -3 25 -20
9 -25 -23 -91 -31 -133 -17 l-33 12 35 -30 c19 -17 43 -33 52 -36 10 -4 18
-11 18 -16 0 -5 -39 11 -87 35 -91 45 -150 65 -138 46 3 -5 12 -10 20 -10 7 0
26 -6 42 -14 15 -8 40 -20 56 -27 17 -8 27 -20 26 -33 0 -12 -3 -15 -6 -8 -7
18 -35 15 -31 -4 4 -22 58 -29 58 -7 0 8 6 13 13 10 6 -2 11 -10 9 -16 -2 -8
6 -7 20 3 34 24 56 21 33 -4 -16 -18 -29 -20 -84 -18 -56 3 -66 6 -63 21 2 9
-2 17 -8 17 -6 0 -9 -4 -6 -8 2 -4 1 -14 -5 -22 -6 -11 -9 -12 -9 -2 0 7 -5
10 -10 7 -8 -5 -7 -11 1 -21 6 -7 9 -21 5 -29 -3 -8 0 -16 7 -16 7 -1 -4 -5
-23 -8 -19 -4 -43 -3 -52 1 -18 9 -45 49 -31 47 4 -1 11 0 16 1 4 1 17 3 30 4
15 1 22 7 22 21 0 17 -6 20 -35 17 -19 -1 -41 -9 -50 -17 -9 -8 -27 -15 -40
-15 -13 0 -34 -10 -47 -21 l-22 -22 -12 29 c-7 16 -13 31 -13 34 -4 18 -19 28
-34 24 -14 -5 -14 -4 -2 4 10 8 18 8 27 0 9 -7 13 -7 13 1 0 6 -7 14 -16 18
-13 5 -13 8 -2 15 10 8 10 9 -2 5 -8 -2 -14 -10 -12 -17 2 -7 -3 -10 -11 -7
-15 6 -57 -26 -57 -43 0 -6 -10 -10 -22 -9 -13 0 -17 3 -10 6 17 7 15 23 -3
23 -8 0 -15 7 -15 16 0 14 -1 14 -16 0 -20 -20 -44 -21 -44 -1 0 8 9 15 21 15
11 0 18 4 14 9 -3 5 -1 12 4 16 6 3 8 12 5 20 -4 10 5 15 33 17 23 2 37 8 36
15 -3 15 42 47 55 40 4 -3 14 -2 22 4 11 6 6 9 -17 9 -17 0 -34 -4 -38 -9 -3
-5 -19 -12 -36 -16 -22 -5 -27 -10 -20 -19 7 -8 4 -12 -10 -13 -10 -1 -19 3
-19 8 0 7 -12 8 -30 4 -20 -4 -30 -3 -30 5 0 6 5 8 11 4 6 -3 10 1 9 12 -1 11
-2 26 -1 34 1 12 3 13 10 1 7 -10 10 -10 16 -1 7 11 -3 22 -30 34 -6 3 -3 9 5
15 8 6 11 11 6 11 -5 0 -3 6 3 14 8 10 9 16 1 21 -5 3 -10 3 -10 -2 0 -4 -5 0
-11 10 -8 13 -7 22 2 33 10 13 10 17 -1 24 -7 5 -16 28 -20 52 -4 28 -10 42
-19 40 -9 -2 -11 3 -7 13 3 9 6 19 6 21 0 8 23 3 57 -13 30 -14 36 -14 44 -2
5 8 4 15 -1 17 -17 6 -11 39 8 47 15 7 14 9 -8 15 -24 8 -24 8 5 9 17 1 37 -5
45 -11 7 -7 5 -1 -6 14 -10 15 -27 28 -37 28 -10 0 -20 6 -23 14 -4 11 -12 12
-35 4 -16 -5 -67 -8 -114 -7 l-85 4 0 -94 c0 -82 -2 -92 -15 -81 -11 9 -16 37
-17 104 l-2 91 -3 -87 c-2 -49 -5 -88 -7 -88 -2 0 -54 24 -115 54 -71 34 -106
56 -96 59 9 4 14 17 13 32 l-2 25 -408 0 -408 -1 0 -37z m1284 -78 c3 -8 2
-12 -4 -9 -6 3 -10 10 -10 16 0 14 7 11 14 -7z m-627 -40 c-3 -3 -12 -4 -19
-1 -8 3 -5 6 6 6 11 1 17 -2 13 -5z m-97 -29 c-14 -8 -34 -14 -45 -14 -13 0
-8 5 15 14 46 18 61 18 30 0z m117 -17 c-3 -8 -6 -5 -6 6 -1 11 2 17 5 13 3
-3 4 -12 1 -19z m380 -75 c-3 -10 -5 -4 -5 12 0 17 2 24 5 18 2 -7 2 -21 0
-30z m-150 -38 c48 -14 93 -23 100 -21 7 3 13 1 13 -4 0 -6 7 -10 16 -10 14 0
15 -16 12 -134 -5 -126 -4 -133 14 -128 11 3 18 13 18 28 0 31 26 42 48 20 15
-15 15 -16 -1 -16 -30 0 -18 -16 20 -28 30 -9 40 -9 53 3 23 21 33 19 27 -5
-3 -11 -1 -23 4 -26 5 -3 9 0 9 5 0 6 14 11 30 11 21 0 30 -5 30 -16 0 -10 -5
-12 -12 -7 -28 17 -38 11 -38 -23 0 -22 -5 -34 -14 -34 -20 0 -32 21 -30 52 0
15 -3 25 -8 22 -5 -3 -6 -15 -2 -26 5 -16 3 -20 -9 -15 -8 3 -22 0 -30 -6 -15
-13 -30 -70 -16 -61 5 3 9 12 9 20 0 8 5 14 11 14 7 0 8 -11 4 -30 -4 -19 -2
-37 6 -46 10 -12 9 -13 -5 -8 -9 3 -16 11 -16 18 0 7 -3 7 -8 1 -4 -5 -16 -11
-27 -13 -13 -2 -16 0 -8 5 8 6 9 14 3 23 -6 8 -10 25 -10 38 0 15 -9 26 -27
33 -39 15 -74 -8 -95 -63 -15 -37 -17 -39 -17 -16 -1 15 -5 29 -10 33 -6 3 -8
-9 -4 -29 4 -28 1 -37 -16 -48 -11 -7 -21 -18 -21 -25 0 -7 -4 -13 -10 -13 -5
0 -10 -7 -10 -15 0 -8 -4 -15 -9 -15 -5 0 -13 -9 -16 -20 -3 -11 -13 -27 -21
-35 -14 -13 -12 -16 13 -27 39 -17 39 -17 15 -34 -14 -10 -22 -26 -22 -45 0
-20 -4 -29 -12 -26 -8 2 -13 23 -13 54 0 31 -4 49 -10 47 -10 -4 -10 45 1 113
4 25 9 31 22 27 13 -5 14 -4 4 4 -8 5 -28 7 -45 5 -59 -8 -67 -8 -67 2 -1 6 9
12 22 15 21 5 21 7 5 13 -11 4 -23 5 -28 1 -5 -3 -9 2 -9 10 0 19 26 21 33 4
4 -10 8 -9 16 2 6 8 11 17 11 20 0 11 -47 5 -62 -8 -14 -11 -18 -6 -32 34 -9
26 -16 48 -16 49 0 1 10 1 23 -1 12 -1 30 -3 40 -3 13 -1 17 -6 12 -20 -3 -11
0 -23 6 -27 8 -4 9 -3 5 4 -4 7 -2 12 4 12 13 0 2 52 -14 62 -6 4 1 8 15 8 18
0 28 -6 32 -20 3 -10 0 -21 -6 -23 -6 -2 -7 -8 -4 -14 5 -7 22 4 48 29 36 35
44 39 82 36 40 -3 42 -1 45 26 3 23 0 28 -13 22 -9 -3 -37 -6 -62 -6 -35 0
-44 -3 -40 -14 4 -9 -3 -16 -16 -20 -12 -3 -24 -1 -25 4 -2 6 -8 8 -13 4 -5
-3 -9 16 -9 41 0 43 2 46 23 40 20 -5 20 -5 -3 9 -15 10 -19 15 -10 16 13 0
13 1 0 10 -10 7 -11 10 -2 11 27 3 31 4 39 13 4 5 3 6 -4 2 -16 -9 -15 76 1
86 8 6 7 8 -1 8 -7 0 -13 12 -13 26 0 20 4 25 16 20 9 -3 27 -9 40 -12 13 -3
24 -13 24 -20 0 -12 3 -12 14 -2 15 14 13 21 -9 24 -32 5 -85 26 -85 35 0 12
-2 13 97 -16z m-207 -35 c0 -5 -2 -10 -4 -10 -3 0 -8 5 -11 10 -3 6 -1 10 4
10 6 0 11 -4 11 -10z m60 0 c0 -5 -9 -10 -19 -10 -11 0 -23 5 -26 10 -4 6 5
10 19 10 14 0 26 -4 26 -10z m471 -23 c-10 -9 -11 -8 -5 6 3 10 9 15 12 12 3
-3 0 -11 -7 -18z m1499 -7 c0 -5 -2 -10 -4 -10 -3 0 -8 5 -11 10 -3 6 -1 10 4
10 6 0 11 -4 11 -10z m-1600 -42 c0 -6 7 -20 17 -30 15 -17 14 -18 -25 -18
-47 0 -49 2 -24 35 19 26 32 32 32 13z m-400 -28 c0 -5 -2 -10 -4 -10 -3 0 -8
5 -11 10 -3 6 -1 10 4 10 6 0 11 -4 11 -10z m2225 1 c3 -5 1 -12 -5 -16 -5 -3
-10 1 -10 9 0 18 6 21 15 7z m62 -47 c2 -6 -3 -14 -11 -17 -10 -4 -13 -1 -10
8 4 9 -1 12 -13 10 -10 -2 -21 -4 -25 -4 -5 -1 -8 -9 -9 -18 0 -15 -2 -15 -9
2 -5 11 -9 24 -9 28 -1 13 82 4 86 -9z m-2264 -31 c-7 -2 -19 -2 -25 0 -7 3
-2 5 12 5 14 0 19 -2 13 -5z m2097 -3 c0 -15 30 -12 30 3 1 12 29 -31 30 -45
0 -5 -9 -8 -19 -8 -11 0 -22 -6 -24 -12 -4 -10 -8 -9 -16 2 -6 8 -11 10 -11 4
0 -7 -11 -15 -24 -18 -18 -4 -23 -11 -20 -28 2 -13 1 -16 -2 -8 -4 8 -11 18
-16 21 -4 3 3 11 17 19 14 7 25 19 25 27 0 7 5 13 11 13 6 0 9 9 6 20 -3 11
-1 20 4 20 5 0 9 -4 9 -10z m74 -5 c-4 -8 -10 -12 -15 -9 -14 8 -10 24 6 24 9
0 12 -6 9 -15z m216 5 c0 -5 -2 -10 -4 -10 -3 0 -8 5 -11 10 -3 6 -1 10 4 10
6 0 11 -4 11 -10z m-1230 -15 c0 -8 -9 -15 -20 -15 -11 0 -20 7 -20 15 0 8 9
15 20 15 11 0 20 -7 20 -15z m-1156 -59 c-7 -18 -24 -22 -24 -6 0 6 4 10 9 10
5 0 7 10 4 23 -4 19 -3 19 6 5 6 -9 8 -23 5 -32z m674 -11 c-1 -2 -16 -1 -31
2 -20 4 -25 8 -16 14 12 7 56 -8 47 -16z m192 -5 c0 -5 -2 -10 -4 -10 -3 0 -8
5 -11 10 -3 6 -1 10 4 10 6 0 11 -4 11 -10z m1320 -45 c0 -24 -5 -35 -15 -35
-10 0 -15 11 -15 35 0 24 5 35 15 35 10 0 15 -11 15 -35z m40 18 c0 -10 -5
-25 -10 -33 -7 -11 -10 -7 -10 18 0 17 5 32 10 32 6 0 10 -8 10 -17z m-1595
-3 c-3 -5 -1 -10 6 -10 7 0 4 -7 -7 -15 -17 -13 -17 -14 -1 -15 9 0 17 -4 17
-10 0 -5 -11 -9 -25 -8 -20 2 -25 8 -25 29 0 25 10 36 33 38 5 1 5 -3 2 -9z
m687 -18 c3 -11 -3 -30 -13 -43 -15 -20 -19 -21 -19 -6 0 9 5 17 11 17 7 0 9
11 5 30 -6 33 8 34 16 2z m111 -9 c-5 -13 -3 -13 14 -2 11 7 28 9 38 6 15 -6
13 -11 -12 -37 -32 -35 -43 -37 -43 -11 0 10 -6 21 -14 24 -9 4 -12 14 -9 26
3 11 11 17 18 14 8 -2 11 -11 8 -20z m-285 0 c-10 -12 -1 -18 23 -15 4 1 9 -8
12 -18 6 -22 -8 -37 -18 -20 -9 15 -25 12 -25 -5 0 -9 -9 -15 -24 -15 -15 0
-26 -7 -28 -17 -3 -10 -7 -1 -9 21 -6 47 20 87 56 84 18 -2 21 -5 13 -15z
m-454 -2 c9 -14 -4 -40 -25 -52 -24 -12 -24 -6 -2 17 13 13 14 19 5 22 -6 2
-12 8 -12 13 0 12 27 12 34 0z m46 -16 c-10 -13 -9 -15 9 -15 13 0 21 7 22 18
0 9 3 12 5 5 4 -9 11 -9 29 -1 18 8 32 6 62 -8 32 -16 39 -26 47 -62 5 -23 6
-45 2 -49 -3 -4 -21 1 -40 9 l-33 16 2 -36 c2 -27 8 -38 25 -44 15 -5 20 -13
16 -24 -3 -9 -6 -31 -6 -49 0 -32 -1 -33 -25 -22 -29 14 -32 32 -7 46 16 9 16
10 0 16 -10 4 -15 11 -12 16 3 5 -5 13 -18 18 -19 7 -24 17 -26 47 -4 54 -16
61 -32 19 -8 -19 -17 -35 -21 -35 -4 0 -16 15 -28 32 -17 29 -18 34 -5 41 19
11 33 -1 15 -12 -9 -6 -10 -11 -2 -15 6 -4 16 -4 21 -1 14 9 9 62 -7 62 -6 0
-10 -4 -8 -8 5 -8 -25 -22 -32 -15 -8 8 8 47 17 41 4 -3 13 2 20 10 7 8 15 15
17 15 3 0 0 -7 -7 -15z m821 -18 c-10 -9 -11 -8 -5 6 3 10 9 15 12 12 3 -3 0
-11 -7 -18z m-611 -2 c0 -8 -6 -15 -14 -15 -8 0 -16 7 -20 15 -4 10 1 15 14
15 11 0 20 -7 20 -15z m-430 -20 c-16 -19 -6 -47 14 -39 8 3 18 14 21 24 6 19
62 33 71 18 3 -4 -4 -8 -14 -8 -11 0 -38 -20 -61 -45 -38 -42 -41 -43 -41 -20
0 16 -6 25 -15 25 -8 0 -15 2 -15 4 0 2 -3 12 -6 20 -4 11 -2 15 8 11 8 -3 21
1 28 10 7 8 15 15 17 15 3 0 0 -7 -7 -15z m995 -5 c3 -5 1 -10 -4 -10 -6 0
-11 5 -11 10 0 6 2 10 4 10 3 0 8 -4 11 -10z m65 0 c0 -5 -4 -10 -10 -10 -5 0
-10 5 -10 10 0 6 5 10 10 10 6 0 10 -4 10 -10z m-590 -25 c0 -18 -1 -18 -36 0
l-29 15 33 0 c22 0 32 -5 32 -15z m246 -10 c2 -10 -5 -32 -14 -47 l-16 -28
-13 23 c-17 31 -16 54 5 66 23 14 35 9 38 -14z m-1566 -11 c0 -9 -28 -3 -46
11 -17 13 -16 14 14 4 17 -6 32 -13 32 -15z m1884 18 c3 -5 -8 -9 -25 -9 -19
0 -25 3 -17 9 17 10 35 10 42 0z m651 -12 c3 -5 1 -10 -4 -10 -6 0 -11 5 -11
10 0 6 2 10 4 10 3 0 8 -4 11 -10z m-295 -19 c0 -46 -58 -138 -83 -133 -18 4
-18 5 1 18 11 7 23 30 27 51 4 21 14 46 22 56 17 18 33 23 33 8z m307 -7 c-3
-3 -12 -4 -19 -1 -8 3 -5 6 6 6 11 1 17 -2 13 -5z m-1107 -18 c0 -8 -4 -17 -9
-21 -12 -7 -24 12 -16 25 9 15 25 12 25 -4z m630 -29 c0 -6 11 0 25 13 24 23
31 18 19 -14 -3 -9 -14 -16 -23 -16 -14 0 -14 -2 -1 -10 12 -7 11 -13 -10 -34
l-23 -26 24 0 c19 0 21 2 9 10 -8 5 -10 10 -4 10 6 0 17 -7 24 -15 7 -8 19
-15 26 -15 19 0 18 -25 -2 -44 -18 -18 -44 -21 -44 -5 0 6 5 19 10 30 7 13 7
19 0 19 -5 0 -10 -6 -10 -13 0 -9 -10 -12 -32 -10 -26 2 -29 1 -13 -6 11 -5
23 -7 28 -4 14 8 7 -12 -13 -37 l-21 -25 7 28 c5 23 3 27 -15 28 -37 2 -41 4
-38 14 1 6 5 9 10 8 4 -2 7 2 7 7 0 6 -7 10 -15 10 -25 0 -18 40 8 41 l22 2
-22 4 c-40 8 -25 23 22 23 34 0 43 3 39 14 -3 8 -12 12 -20 9 -8 -3 -14 0 -14
6 0 6 -7 8 -15 5 -9 -4 -15 0 -15 9 0 13 6 13 35 4 19 -6 35 -15 35 -20z
m-1185 -4 c9 -12 10 -25 4 -41 -5 -13 -6 -29 -2 -35 5 -8 9 -4 13 10 3 16 9
20 19 14 11 -7 9 -13 -7 -29 -11 -11 -17 -24 -14 -29 4 -4 -6 5 -22 20 -32 31
-46 34 -46 12 0 -9 10 -20 23 -25 19 -7 17 -9 -16 -9 -28 -1 -37 3 -33 12 3 6
9 19 12 27 3 9 19 22 35 29 24 10 27 16 18 27 -9 11 -16 11 -44 0 -30 -13 -34
-13 -38 4 -4 16 2 20 37 23 22 2 43 4 45 5 2 1 9 -6 16 -15z m1439 -65 c-14
-20 -15 -20 -9 -3 4 11 10 31 13 45 6 24 7 24 10 3 2 -13 -4 -33 -14 -45z
m-187 27 c-4 -8 -12 -15 -19 -14 -10 0 -10 2 0 6 6 2 12 12 12 21 0 8 3 13 6
9 4 -3 4 -13 1 -22z m-2363 -10 c-4 -8 -16 -15 -28 -15 -20 1 -20 1 4 15 31
18 30 18 24 0z m-54 -4 c0 -5 -11 -8 -25 -8 -14 0 -25 3 -25 8 0 5 11 9 25 9
14 0 25 -4 25 -9z m431 -11 c4 0 6 -8 2 -17 -6 -16 -3 -15 17 2 l23 20 -12
-22 c-14 -27 -15 -27 -46 -7 -13 9 -29 13 -35 9 -5 -3 -10 -2 -10 4 0 12 21
21 38 15 8 -2 18 -4 23 -4z m2429 7 c0 -2 -12 -14 -26 -28 l-27 -24 18 28 c14
22 35 36 35 24z m-1435 -17 c3 -5 1 -10 -4 -10 -6 0 -11 5 -11 10 0 6 2 10 4
10 3 0 8 -4 11 -10z m311 -10 c0 -12 -4 -16 -9 -11 -5 5 -6 14 -3 20 10 15 12
14 12 -9z m-1726 -20 c-32 -24 -54 -30 -71 -19 -10 6 -11 9 -1 9 6 0 12 5 12
11 0 6 -7 8 -16 5 -8 -3 -13 -2 -10 2 2 4 28 8 58 9 l53 2 -25 -19z m518 7 c6
-7 9 -23 5 -35 -4 -16 -13 -22 -34 -22 -18 0 -29 5 -29 14 0 8 -6 17 -12 19
-8 3 -6 6 4 6 11 1 15 6 12 16 -8 19 39 21 54 2z m1982 -4 c0 -10 -4 -14 -8
-8 -4 6 -11 13 -16 18 -5 4 -2 7 7 7 10 0 17 -8 17 -17z m426 5 c5 4 1 -2 -8
-13 -9 -11 -18 -29 -19 -39 -2 -11 -11 -22 -19 -24 -13 -5 -13 -3 0 14 14 18
14 18 -6 2 -27 -23 -37 -23 -24 1 5 11 19 22 29 26 14 4 17 12 13 28 -5 19 -3
20 10 10 8 -7 19 -9 24 -5z m-249 -20 c-3 -8 -6 -5 -6 6 -1 11 2 17 5 13 3 -3
4 -12 1 -19z m-2261 -14 c-9 -8 -16 -20 -16 -25 0 -5 -5 -9 -12 -9 -6 0 -20
-7 -30 -17 -20 -18 -23 -8 -12 34 5 18 10 20 29 13 17 -7 25 -5 29 6 3 8 10
14 16 14 6 0 4 -7 -4 -16z m1044 6 c0 -5 -5 -10 -11 -10 -5 0 -7 5 -4 10 3 6
8 10 11 10 2 0 4 -4 4 -10z m1015 0 c-3 -5 2 -10 12 -10 11 0 28 -7 39 -15 19
-14 18 -14 -3 -15 -13 0 -23 5 -23 10 0 6 -5 10 -11 10 -6 0 -8 -7 -5 -16 3
-8 2 -12 -4 -9 -6 3 -10 2 -10 -4 0 -5 6 -12 13 -14 6 -3 0 -6 -14 -6 -15 -1
-32 5 -38 13 -10 12 -8 14 11 10 13 -2 17 -2 11 2 -18 8 -16 25 2 18 8 -4 15
-1 15 5 0 6 -6 11 -12 11 -9 0 -8 4 2 10 19 12 23 12 15 0z m-1239 -17 c3 -10
10 -27 14 -38 5 -11 12 -35 16 -54 l6 -34 -48 6 c-27 3 -50 9 -51 14 -13 37
-48 38 -61 2 -5 -13 -11 -16 -21 -9 -20 12 0 36 44 51 21 8 41 25 52 46 19 36
40 43 49 16z m179 7 c3 -6 -1 -7 -9 -4 -18 7 -21 14 -7 14 6 0 13 -4 16 -10z
m231 -21 c3 -5 -4 -9 -15 -9 -12 0 -21 -6 -21 -12 0 -16 -20 12 -20 28 0 13
47 7 56 -7z m-909 -21 c-3 -7 -5 -2 -5 12 0 14 2 19 5 13 2 -7 2 -19 0 -25z
m995 -20 c23 -34 10 -37 -18 -5 -11 12 -18 31 -15 42 3 15 5 16 9 5 3 -8 14
-27 24 -42z m-1224 15 c-10 -2 -18 -9 -18 -15 0 -6 -3 -9 -6 -5 -10 10 6 27
24 26 15 -1 15 -2 0 -6z m2072 -3 c0 -5 -7 -10 -15 -10 -8 0 -15 5 -15 10 0 6
7 10 15 10 8 0 15 -4 15 -10z m-1196 -34 c-3 -14 -2 -30 2 -37 4 -7 7 -29 7
-48 0 -28 -4 -35 -16 -33 -14 2 -16 -3 -11 -30 l6 -33 -18 25 c-10 14 -25 31
-34 38 -13 10 -11 11 11 7 25 -6 25 -5 27 55 1 63 6 80 23 80 5 0 7 -11 3 -24z
m856 9 c0 -8 -7 -15 -15 -15 -16 0 -20 12 -8 23 11 12 23 8 23 -8z m70 8 c0
-5 -7 -17 -15 -27 -14 -19 -15 -19 -15 7 0 17 5 27 15 27 8 0 15 -3 15 -7z
m-1979 -26 c-10 -9 -11 -8 -5 6 3 10 9 15 12 12 3 -3 0 -11 -7 -18z m212 -79
c4 -71 2 -107 -6 -117 -10 -12 -8 -13 10 -9 31 8 36 -4 18 -38 -8 -16 -15 -23
-15 -15 0 7 -6 11 -14 8 -8 -3 -16 -1 -18 5 -3 7 -10 8 -17 4 -11 -7 -11 -10
0 -17 9 -6 1 -9 -23 -7 -21 1 -38 3 -38 4 0 15 16 34 29 34 9 0 25 8 36 17 15
12 16 14 3 10 -26 -9 -34 12 -36 90 -2 75 14 113 46 113 7 0 10 5 7 10 -3 6
-2 10 3 10 5 0 12 -46 15 -102z m2127 92 c8 13 10 13 10 -1 0 -9 -7 -20 -16
-23 -23 -9 -24 -8 -24 17 0 18 2 19 10 7 9 -13 11 -13 20 0z m-2357 -43 c7 4
6 -1 -2 -11 -20 -24 -36 -5 -25 31 l8 28 4 -28 c2 -18 7 -25 15 -20z m2412 33
c3 -5 2 -10 -4 -10 -5 0 -13 5 -16 10 -3 6 -2 10 4 10 5 0 13 -4 16 -10z
m-1285 -10 c0 -5 -5 -10 -11 -10 -5 0 -7 5 -4 10 3 6 8 10 11 10 2 0 4 -4 4
-10z m1182 3 c-6 -2 -10 -9 -6 -14 3 -5 1 -9 -4 -9 -6 0 -12 7 -16 15 -4 11 1
15 17 14 12 0 16 -3 9 -6z m-354 -15 c-3 -7 -12 -14 -21 -16 -12 -2 -15 1 -11
12 7 19 38 22 32 4z m-1117 -13 c-1 -15 -24 -12 -29 3 -3 9 2 13 12 10 10 -1
17 -7 17 -13z m1323 0 c-4 -8 -10 -12 -15 -9 -11 6 -2 24 11 24 5 0 7 -7 4
-15z m206 -5 c0 -5 -7 -10 -16 -10 -9 0 -12 -5 -8 -12 5 -9 3 -9 -9 1 -9 7
-14 17 -11 22 7 12 44 11 44 -1z m-181 -26 c17 -4 28 -10 26 -14 -3 -5 -14 -6
-25 -3 -13 4 -20 0 -20 -10 0 -8 9 -17 21 -20 17 -5 19 -9 9 -26 -13 -25 -35
-27 -44 -5 -5 12 -1 14 15 9 15 -5 19 -4 15 4 -4 6 -14 11 -23 11 -9 0 -13 6
-9 15 3 9 0 15 -8 15 -8 0 -16 7 -20 15 -6 17 11 19 63 9z m61 -4 c0 -5 -5
-10 -11 -10 -5 0 -7 5 -4 10 3 6 8 10 11 10 2 0 4 -4 4 -10z m175 0 c16 -7 16
-9 4 -9 -17 -1 -34 -28 -30 -46 1 -5 -6 -2 -17 8 -11 10 -23 17 -28 16 -18 -3
-67 1 -63 5 3 3 20 8 39 11 19 3 37 10 38 16 4 11 30 11 57 -1z m-2031 -47 c5
-44 1 -48 -69 -59 l-30 -5 4 48 c4 45 5 46 15 21 5 -15 15 -29 22 -32 8 -3 11
1 7 10 -4 11 34 63 44 59 1 0 4 -19 7 -42z m517 5 c5 1 9 -2 9 -8 0 -5 -7 -10
-15 -10 -8 0 -15 -4 -15 -10 0 -5 -4 -10 -10 -10 -5 0 -10 17 -10 38 1 35 1
36 16 17 8 -11 20 -19 25 -17z m63 17 c-4 -8 -10 -15 -16 -15 -5 0 -6 -4 -3
-10 3 -5 4 -10 1 -10 -14 0 -14 20 0 34 19 20 25 20 18 1z m1073 -1 c-3 -3
-12 -4 -19 -1 -8 3 -5 6 6 6 11 1 17 -2 13 -5z m-832 -14 c-3 -5 -12 -10 -18
-10 -7 0 -6 4 3 10 19 12 23 12 15 0z m100 0 c4 -6 -10 -9 -37 -9 l-43 2 35 7
c19 4 36 8 37 9 1 0 5 -3 8 -9z m222 -37 c-3 -10 -5 -2 -5 17 0 19 2 27 5 18
2 -10 2 -26 0 -35z m495 23 c7 4 8 2 4 -5 -9 -14 -36 3 -36 23 0 6 5 3 11 -7
6 -9 15 -14 21 -11z m-1610 -8 c-7 -7 -12 -8 -12 -2 0 14 12 26 19 19 2 -3 -1
-11 -7 -17z m586 -16 c3 -16 -1 -20 -12 -16 -19 7 -22 48 -3 42 6 -3 13 -14
15 -26z m-725 -31 c3 -14 1 -18 -9 -14 -15 6 -18 16 -7 26 9 10 10 9 16 -12z
m602 -1 c3 -5 1 -10 -4 -10 -6 0 -11 5 -11 10 0 6 2 10 4 10 3 0 8 -4 11 -10z
m-730 -20 c3 -5 2 -10 -4 -10 -5 0 -13 5 -16 10 -3 6 -2 10 4 10 5 0 13 -4 16
-10z m88 -117 c3 -10 4 -31 3 -47 -1 -25 -7 -30 -46 -42 -49 -15 -58 -13 -35
6 23 19 18 33 -11 26 -18 -5 -24 -3 -19 5 6 8 2 8 -12 1 -17 -10 -19 -8 -15
19 5 32 27 48 43 32 12 -12 59 -5 59 8 0 17 29 9 33 -8z"/>
<path d="M1001 1154 c0 -11 3 -14 6 -6 3 7 2 16 -1 19 -3 4 -6 -2 -5 -13z"/>
<path d="M961 1143 c-1 -12 -4 -29 -7 -38 -6 -13 -1 -16 22 -13 20 2 30 9 32
23 2 14 1 16 -6 7 -10 -14 -23 -3 -35 28 -4 10 -6 8 -6 -7z"/>
<path d="M926 1103 c-6 -14 -5 -15 5 -6 7 7 10 15 7 18 -3 3 -9 -2 -12 -12z"/>
<path d="M870 1060 c-30 -6 -32 -8 -8 -9 19 -1 28 -7 30 -23 3 -19 5 -17 9 10
3 17 5 31 5 31 -1 -1 -17 -5 -36 -9z"/>
<path d="M940 1049 c0 -5 11 -9 25 -9 14 0 25 2 25 4 0 2 -11 6 -25 8 -14 3
-25 1 -25 -3z"/>
<path d="M1003 995 c0 -38 2 -53 4 -32 2 20 2 52 0 70 -2 17 -4 1 -4 -38z"/>
<path d="M915 990 c-19 -8 -19 -9 3 -9 12 -1 22 4 22 9 0 6 -1 10 -2 9 -2 0
-12 -4 -23 -9z"/>
<path d="M790 979 c0 -8 5 -21 10 -29 8 -12 9 -10 7 7 -4 26 -17 43 -17 22z"/>
<path d="M967 917 c-5 -13 0 -24 15 -38 26 -21 38 -24 38 -9 0 6 -6 10 -13 10
-7 0 -18 12 -23 28 -8 23 -11 25 -17 9z"/>
<path d="M1000 906 c0 -9 5 -16 10 -16 6 0 10 4 10 9 0 6 -4 13 -10 16 -5 3
-10 -1 -10 -9z"/>
<path d="M713 824 c-7 -7 -13 -19 -13 -26 0 -7 7 -2 16 10 18 26 16 37 -3 16z"/>
<path d="M920 840 c-8 -26 -7 -41 2 -32 6 6 8 16 5 24 -3 7 -6 11 -7 8z"/>
<path d="M860 775 c-7 -8 -18 -15 -26 -15 -7 0 -16 -4 -19 -10 -3 -5 0 -10 8
-10 19 0 64 36 56 44 -3 4 -12 0 -19 -9z"/>
<path d="M916 755 c-3 -8 -1 -15 4 -15 6 0 10 7 10 15 0 8 -2 15 -4 15 -2 0
-6 -7 -10 -15z"/>
<path d="M832 630 c0 -14 2 -19 5 -12 2 6 2 18 0 25 -3 6 -5 1 -5 -13z"/>
<path d="M2858 973 c6 -2 18 -2 25 0 6 3 1 5 -13 5 -14 0 -19 -2 -12 -5z"/>
<path d="M1572 808 c-16 -16 -15 -25 2 -25 8 0 14 9 13 19 -2 21 0 21 -15 6z"/>
<path d="M510 520 c-8 -5 -12 -11 -10 -14 3 -2 14 2 24 10 22 15 10 19 -14 4z"/>
<path d="M647 403 c-10 -9 -9 -23 1 -23 5 0 9 7 9 15 0 17 -1 18 -10 8z"/>
<path d="M657 373 c-21 -6 -19 -36 3 -41 10 -2 16 6 18 23 1 14 1 24 -1 24 -1
-1 -10 -3 -20 -6z"/>
<path d="M638 293 c7 -3 16 -2 19 1 4 3 -2 6 -13 5 -11 0 -14 -3 -6 -6z"/>
<path d="M1556 1520 c17 -33 64 -92 64 -81 0 7 5 9 13 5 8 -5 8 -3 -2 9 -7 9
-18 14 -24 10 -6 -4 -8 0 -4 11 4 9 3 15 -2 11 -5 -3 -19 7 -31 22 -12 16 -18
21 -14 13z"/>
<path d="M1586 1519 c3 -5 10 -7 15 -4 5 4 9 1 9 -4 0 -6 5 -11 12 -11 9 0 9
3 0 12 -14 14 -44 20 -36 7z"/>
<path d="M1646 1515 c-3 -8 -1 -15 3 -15 5 0 11 7 15 15 3 8 1 15 -3 15 -5 0
-11 -7 -15 -15z"/>
<path d="M1806 1515 c4 -8 7 -15 9 -15 2 0 5 7 9 15 3 9 0 15 -9 15 -9 0 -12
-6 -9 -15z"/>
<path d="M1915 1520 c-11 -4 -22 -6 -25 -4 -3 1 -7 -6 -7 -17 -1 -10 7 -24 18
-29 10 -6 19 -18 18 -28 0 -10 -3 -12 -6 -4 -2 6 -11 12 -19 12 -9 0 -13 4 -9
9 3 5 1 12 -4 15 -5 4 -12 2 -15 -3 -4 -5 -2 -12 2 -15 5 -3 8 -16 7 -28 -1
-13 0 -15 2 -5 6 24 28 16 27 -10 0 -10 6 -25 13 -32 11 -10 13 -8 8 12 -6 21
-2 27 22 35 15 6 22 11 16 11 -8 1 -13 15 -13 34 0 42 -10 56 -35 47z m15 -32
c0 -13 -23 -5 -28 10 -2 7 2 10 12 6 9 -3 16 -11 16 -16z"/>
<path d="M1998 1483 c20 -56 76 -118 98 -109 9 3 18 6 20 6 2 0 4 9 4 21 0 18
-5 21 -35 17 -22 -2 -36 1 -39 9 -3 7 -1 13 4 13 6 0 10 7 10 15 0 21 30 19
46 -2 12 -17 13 -17 14 -1 0 9 -5 20 -11 24 -8 4 -7 9 2 14 10 7 10 11 0 24
-18 21 -81 22 -81 1 0 -8 -5 -15 -11 -15 -5 0 -8 4 -5 9 5 7 -15 21 -29 21 -2
0 4 -21 13 -47z m95 20 c-7 -2 -19 -2 -25 0 -7 3 -2 5 12 5 14 0 19 -2 13 -5z
m-66 -55 c-3 -8 -6 -5 -6 6 -1 11 2 17 5 13 3 -3 4 -12 1 -19z m70 -54 c-3 -3
-12 -4 -19 -1 -8 3 -5 6 6 6 11 1 17 -2 13 -5z"/>
<path d="M2190 1516 c0 -8 -11 -23 -24 -33 -15 -12 -23 -28 -22 -43 2 -14 -4
-40 -11 -59 -17 -43 -16 -44 3 -37 14 5 15 4 4 -9 -22 -27 4 -16 41 18 20 17
72 64 117 102 l80 70 -50 3 c-37 2 -55 -2 -71 -15 -19 -17 -20 -17 -14 0 5 14
1 17 -23 17 -19 0 -30 -5 -30 -14z m128 -17 c-2 -6 -6 -9 -10 -7 -3 2 -16 -6
-29 -17 -24 -20 -24 -20 0 8 25 27 46 36 39 16z m-76 -71 c-7 -7 -12 -8 -12
-2 0 6 3 14 7 17 3 4 9 5 12 2 2 -3 -1 -11 -7 -17z"/>
<path d="M2531 1498 c0 -18 4 -53 8 -78 8 -41 9 -39 10 33 0 45 -3 77 -9 77
-5 0 -10 -15 -9 -32z"/>
<path d="M1665 1470 c-3 -5 -1 -10 4 -10 6 0 11 5 11 10 0 6 -2 10 -4 10 -3 0
-8 -4 -11 -10z"/>
<path d="M911 1434 c0 -11 3 -14 6 -6 3 7 2 16 -1 19 -3 4 -6 -2 -5 -13z"/>
<path d="M2 1408 c3 -7 19 -16 36 -20 24 -6 30 -12 25 -26 -6 -16 -5 -16 14 1
24 21 33 22 33 1 0 -10 -5 -14 -15 -10 -10 4 -19 -2 -24 -17 -5 -13 -17 -29
-27 -37 -17 -14 -17 -14 -1 10 19 27 22 45 8 35 -5 -3 -12 5 -14 17 -3 15 -5
9 -6 -14 -1 -29 -5 -38 -18 -38 -15 0 -16 -2 -3 -10 12 -8 12 -12 2 -18 -7 -5
-12 -24 -10 -45 2 -37 11 -47 24 -26 7 11 93 7 149 -7 22 -5 26 -2 31 25 4 17
11 31 17 31 6 0 7 3 4 6 -3 4 -2 15 4 25 17 33 2 21 -21 -16 -12 -19 -18 -40
-14 -47 4 -7 -4 -2 -17 12 -20 21 -21 26 -9 32 9 4 -2 7 -25 8 -22 1 -32 4
-22 7 9 2 24 18 32 34 16 30 63 44 52 14 -4 -8 -2 -17 3 -20 6 -4 10 3 10 14
0 14 5 19 15 15 8 -4 12 -11 8 -18 -4 -7 -1 -7 9 1 20 17 28 7 28 -33 0 -23
-5 -34 -17 -37 -17 -4 -17 -5 0 -6 15 -1 16 -4 6 -23 -11 -21 -11 -22 4 -10
13 11 15 10 10 -7 -3 -12 -1 -21 6 -21 6 0 11 11 11 24 0 18 7 26 23 29 l22 4
-22 2 c-25 1 -30 20 -10 40 7 9 7 11 1 8 -15 -9 -27 20 -12 29 5 4 13 3 17 -2
3 -5 12 -9 19 -10 6 -1 21 -2 32 -2 20 -2 20 -3 -5 -47 -47 -85 -56 -95 -74
-86 -9 5 -26 5 -38 0 -28 -10 -30 -19 -4 -12 14 4 19 -2 23 -26 4 -28 2 -31
-24 -31 -15 0 -28 3 -28 8 0 4 -20 6 -45 4 l-46 -4 21 38 c12 22 15 31 8 20
-39 -56 -43 -59 -76 -51 -37 8 -40 17 -12 43 l21 19 -21 6 c-11 3 -18 1 -14
-4 3 -5 2 -15 -2 -21 -6 -9 -11 -5 -16 12 l-7 25 1 -25 c1 -43 -2 -50 -17 -50
-8 0 -15 -4 -15 -10 0 -5 5 -10 10 -10 15 0 12 -87 -2 -93 -10 -4 -10 -6 0 -6
16 -1 16 -78 -1 -84 -9 -4 -9 -6 1 -6 16 -1 17 -81 0 -81 -9 0 -9 -3 -1 -11 6
-6 9 -18 6 -25 -3 -8 0 -14 6 -14 12 0 14 18 11 88 l-2 42 40 0 c23 0 43 -5
45 -12 3 -7 6 13 6 45 l1 57 75 0 75 0 0 -35 c0 -21 -5 -35 -12 -35 -10 0 -10
-2 -1 -8 7 -5 11 -24 10 -45 -2 -21 0 -40 5 -43 4 -3 9 4 9 15 1 12 3 30 4 41
1 11 3 40 4 64 1 38 4 45 24 49 l22 4 -22 2 c-19 1 -23 7 -23 36 0 32 2 35 29
35 28 0 30 -2 34 -47 l3 -48 2 48 c2 44 4 48 24 45 14 -2 25 -13 29 -28 7 -24
7 -24 8 -2 1 12 6 22 12 22 5 0 8 4 5 8 -3 5 -29 10 -58 11 -91 3 -93 5 -61
61 15 27 31 46 37 43 5 -3 6 -1 2 6 -4 6 -1 14 8 17 8 3 13 11 10 17 -2 7 6
24 18 40 22 26 24 26 51 12 16 -8 31 -14 35 -14 30 5 44 -3 38 -18 -6 -17 -5
-17 7 -2 11 15 16 15 37 3 14 -7 20 -13 15 -14 -12 0 -7 -81 6 -95 5 -5 9 0 9
13 0 12 4 22 8 22 5 0 9 7 9 15 0 8 -4 12 -9 9 -4 -3 -8 4 -8 15 0 15 7 21 23
22 20 1 20 2 2 6 -11 3 -22 8 -25 12 -3 4 -88 29 -190 54 -102 26 -228 59
-279 72 -107 28 -124 30 -119 13z m158 -57 c0 -12 -31 -51 -41 -51 -5 0 -9 7
-9 16 0 9 5 12 11 8 8 -5 10 1 6 19 -6 22 -4 24 13 20 11 -3 20 -8 20 -12z
m-44 -254 c4 -4 13 -2 20 4 20 16 64 0 65 -25 0 -21 0 -21 9 2 10 23 18 26 44
16 10 -4 16 -18 16 -40 l0 -34 -76 0 c-76 0 -76 0 -72 25 3 14 1 28 -3 31 -5
3 -9 -9 -9 -25 0 -24 -4 -31 -20 -31 -12 0 -20 7 -21 18 -1 16 -2 16 -6 0 -8
-31 -34 -22 -29 10 2 15 5 35 5 44 1 14 9 17 36 15 19 -2 38 -6 41 -10z m-54
-127 c3 -33 0 -40 -14 -40 -14 0 -18 8 -18 40 0 28 4 40 14 40 9 0 15 -14 18
-40z m48 0 c0 -29 -4 -40 -15 -40 -8 0 -15 6 -16 13 0 6 -3 24 -5 40 -4 22 -1
27 16 27 17 0 20 -6 20 -40z"/>
<path d="M2543 1335 c0 -8 4 -12 9 -9 5 3 6 10 3 15 -9 13 -12 11 -12 -6z"/>
<path d="M1261 1324 c0 -11 3 -14 6 -6 3 7 2 16 -1 19 -3 4 -6 -2 -5 -13z"/>
<path d="M1240 1304 c0 -7 12 -20 28 -29 15 -10 24 -14 20 -10 -4 5 -3 14 3
22 9 9 8 13 0 13 -6 0 -11 -6 -11 -12 0 -9 -4 -8 -10 2 -5 8 -10 11 -10 5 0
-5 -5 -3 -10 5 -5 8 -10 10 -10 4z"/>
<path d="M1992 1298 c7 -21 38 -22 37 -1 0 10 -3 13 -6 6 -2 -7 -9 -13 -14
-13 -6 0 -7 5 -4 10 3 6 1 10 -5 10 -7 0 -10 -6 -8 -12z"/>
<path d="M1916 1282 c-3 -5 1 -9 9 -9 8 0 12 4 9 9 -3 4 -7 8 -9 8 -2 0 -6 -4
-9 -8z"/>
<path d="M2575 1258 c1 -13 3 -38 4 -55 1 -31 3 -33 37 -33 l35 0 -3 53 c-3
52 -3 52 -39 55 -33 3 -36 1 -34 -20z m55 -28 c0 -5 -8 -10 -17 -10 -15 0 -16
2 -3 10 19 12 20 12 20 0z"/>
<path d="M417 1208 c-9 -31 -2 -33 11 -3 6 14 8 25 3 25 -5 0 -11 -10 -14 -22z"/>
<path d="M3020 1165 c0 -38 2 -66 5 -64 7 8 9 119 2 126 -4 3 -7 -24 -7 -62z"/>
<path d="M473 1198 c-2 -16 0 -19 6 -9 5 7 15 17 22 22 11 7 9 9 -6 9 -14 0
-21 -7 -22 -22z"/>
<path d="M2038 1213 c19 -8 14 -26 -5 -18 -15 5 -16 4 -5 -6 9 -10 15 -10 23
-2 13 13 4 33 -14 32 -9 0 -9 -2 1 -6z"/>
<path d="M2072 1203 c4 -20 18 -26 37 -14 18 12 5 31 -20 31 -14 0 -19 -6 -17
-17z"/>
<path d="M538 1203 c7 -3 16 -2 19 1 4 3 -2 6 -13 5 -11 0 -14 -3 -6 -6z"/>
<path d="M635 1199 c-4 -6 -5 -12 -2 -15 2 -3 7 2 10 11 7 17 1 20 -8 4z"/>
<path d="M435 1159 c-27 -6 -27 -7 -5 -8 19 -1 21 -4 12 -13 -7 -7 -12 -17
-12 -22 0 -6 9 2 19 17 13 20 20 25 24 15 4 -8 6 -9 6 -1 1 17 -10 20 -44 12z"/>
<path d="M3249 1161 c8 -5 12 -18 8 -30 -4 -18 -2 -19 14 -10 10 5 19 19 19
29 0 15 -7 20 -27 20 -20 0 -24 -3 -14 -9z"/>
<path d="M2094 1145 c-4 -8 -10 -13 -14 -10 -15 9 -20 -12 -6 -30 18 -25 54
-12 54 20 0 27 -26 42 -34 20z"/>
<path d="M495 1140 c4 -6 11 -8 16 -5 14 9 11 15 -7 15 -8 0 -12 -5 -9 -10z"/>
<path d="M555 1140 c-4 -6 1 -10 9 -10 19 0 22 -40 4 -41 -7 -1 -28 -1 -46 -1
-38 -1 -33 -12 6 -14 15 -1 31 -2 36 -3 4 -1 6 -48 3 -106 -6 -110 7 -146 17
-47 5 52 10 181 7 208 -1 16 -29 26 -36 14z"/>
<path d="M2587 1143 c-3 -5 -5 -27 -4 -50 0 -42 0 -43 33 -43 24 0 34 5 34 15
0 8 -5 15 -10 15 -7 0 -7 6 0 19 7 15 6 23 -6 35 -16 17 -40 21 -47 9z m33
-13 c0 -5 -2 -10 -4 -10 -3 0 -8 5 -11 10 -3 6 -1 10 4 10 6 0 11 -4 11 -10z
m0 -30 c0 -5 -4 -10 -9 -10 -6 0 -13 5 -16 10 -3 6 1 10 9 10 9 0 16 -4 16
-10z"/>
<path d="M3077 1115 c3 -8 9 -12 14 -9 12 7 11 11 -5 17 -10 4 -13 1 -9 -8z"/>
<path d="M2010 1110 c19 -13 30 -13 30 0 0 6 -10 10 -22 10 -19 0 -20 -2 -8
-10z"/>
<path d="M2153 1098 c3 -9 0 -21 -6 -27 -8 -8 -7 -11 4 -11 12 0 12 -2 -1 -11
-13 -9 -13 -10 0 -6 18 4 24 54 8 63 -7 5 -9 2 -5 -8z"/>
<path d="M3057 1090 c3 -11 9 -17 15 -14 5 3 4 12 -3 20 -16 19 -18 18 -12 -6z"/>
<path d="M2690 1096 c0 -2 11 -6 25 -8 14 -3 25 -1 25 3 0 5 -11 9 -25 9 -14
0 -25 -2 -25 -4z"/>
<path d="M466 1075 c4 -8 8 -15 10 -15 2 0 4 7 4 15 0 8 -4 15 -10 15 -5 0 -7
-7 -4 -15z"/>
<path d="M1745 1080 c3 -5 8 -10 11 -10 2 0 4 5 4 10 0 6 -5 10 -11 10 -5 0
-7 -4 -4 -10z"/>
<path d="M1813 1051 c1 -15 4 -17 19 -8 13 8 14 13 5 19 -19 12 -26 9 -24 -11z"/>
<path d="M1880 1047 c0 -9 -10 -18 -22 -20 -22 -4 -21 -4 2 -5 37 -2 55 12 35
28 -12 10 -15 10 -15 -3z"/>
<path d="M2297 1049 c7 -7 15 -10 18 -7 3 3 -2 9 -12 12 -14 6 -15 5 -6 -5z"/>
<path d="M1588 1043 c7 -3 16 -2 19 1 4 3 -2 6 -13 5 -11 0 -14 -3 -6 -6z"/>
<path d="M2542 1030 c0 -14 2 -19 5 -12 2 6 2 18 0 25 -3 6 -5 1 -5 -13z"/>
<path d="M1518 1033 c-10 -2 -18 -9 -18 -14 0 -6 7 -6 19 0 10 6 21 7 25 4 3
-3 6 -1 6 5 0 12 -3 13 -32 5z"/>
<path d="M2105 1020 c3 -5 10 -10 16 -10 5 0 9 5 9 10 0 6 -7 10 -16 10 -8 0
-12 -4 -9 -10z"/>
<path d="M2149 1021 c7 -5 11 -13 8 -18 -3 -5 -1 -15 5 -23 8 -12 9 -12 4 2
-3 10 -1 20 5 23 13 9 1 25 -19 25 -14 0 -14 -2 -3 -9z"/>
<path d="M2343 1023 c-7 -2 -13 -12 -13 -20 0 -10 -6 -13 -16 -9 -10 4 -15 0
-13 -12 3 -31 -1 -43 -11 -37 -6 3 -7 -1 -3 -10 4 -13 8 -14 14 -4 4 8 11 10
15 6 4 -3 1 -13 -5 -21 -10 -11 -8 -15 6 -19 10 -3 4 -5 -14 -6 -17 0 -34 5
-36 12 -3 7 -6 5 -6 -5 -1 -14 7 -18 39 -18 43 0 42 -3 25 82 -1 10 2 16 7 15
6 -1 14 10 19 26 4 15 7 27 6 26 -1 0 -8 -3 -14 -6z"/>
<path d="M1470 1010 c-13 -8 -12 -10 3 -10 9 0 17 5 17 10 0 12 -1 12 -20 0z"/>
<path d="M2380 985 c0 -19 5 -35 10 -35 6 0 10 16 10 35 0 19 -4 35 -10 35 -5
0 -10 -16 -10 -35z"/>
<path d="M498 1003 c6 -2 18 -2 25 0 6 3 1 5 -13 5 -14 0 -19 -2 -12 -5z"/>
<path d="M1310 999 c0 -18 51 -31 70 -19 6 4 -3 7 -21 8 -18 0 -36 7 -40 14
-7 10 -9 9 -9 -3z"/>
<path d="M352 970 c0 -14 2 -19 5 -12 2 6 2 18 0 25 -3 6 -5 1 -5 -13z"/>
<path d="M410 966 c0 -15 -7 -26 -17 -29 -14 -4 -12 -5 5 -6 18 -1 22 4 22 29
0 17 -2 30 -5 30 -3 0 -5 -11 -5 -24z"/>
<path d="M2090 970 c-9 -6 -10 -10 -3 -10 6 0 15 5 18 10 8 12 4 12 -15 0z"/>
<path d="M131 944 c0 -11 3 -14 6 -6 3 7 2 16 -1 19 -3 4 -6 -2 -5 -13z"/>
<path d="M157 953 c-10 -9 -9 -23 1 -23 5 0 9 7 9 15 0 17 -1 18 -10 8z"/>
<path d="M461 944 c0 -11 3 -14 6 -6 3 7 2 16 -1 19 -3 4 -6 -2 -5 -13z"/>
<path d="M313 933 c9 -2 25 -2 35 0 9 3 1 5 -18 5 -19 0 -27 -2 -17 -5z"/>
<path d="M1470 921 c0 -13 7 -18 25 -18 13 0 23 3 20 7 -2 4 7 6 21 4 15 -1
24 2 21 9 -2 6 -22 12 -45 14 -35 2 -42 0 -42 -16z"/>
<path d="M2543 905 c0 -22 2 -30 4 -17 2 12 2 30 0 40 -3 9 -5 -1 -4 -23z"/>
<path d="M388 903 c6 -2 18 -2 25 0 6 3 1 5 -13 5 -14 0 -19 -2 -12 -5z"/>
<path d="M218 893 c6 -2 18 -2 25 0 6 3 1 5 -13 5 -14 0 -19 -2 -12 -5z"/>
<path d="M513 873 c9 -2 23 -2 30 0 6 3 -1 5 -18 5 -16 0 -22 -2 -12 -5z"/>
<path d="M461 824 c0 -11 3 -14 6 -6 3 7 2 16 -1 19 -3 4 -6 -2 -5 -13z"/>
<path d="M10 763 c0 -13 5 -23 10 -23 13 0 13 11 0 30 -8 12 -10 11 -10 -7z"/>
<path d="M5 708 c-13 -52 16 -78 46 -41 10 11 10 14 2 9 -8 -4 -13 -2 -13 4 0
6 -5 8 -12 4 -6 -4 -9 -3 -6 2 3 5 2 18 -2 29 -7 18 -8 18 -15 -7z"/>
</g>
</svg>
